<?xml version="1.0" encoding="UTF-8" standalone="no"?>
<svg
   xmlns:dc="http://purl.org/dc/elements/1.1/"
   xmlns:cc="http://web.resource.org/cc/"
   xmlns:rdf="http://www.w3.org/1999/02/22-rdf-syntax-ns#"
   xmlns="http://www.w3.org/2000/svg"
   version="1.0"
   width="622" height="574" viewBox="-1 -1 622 574">
  <metadata>
    <rdf:RDF>
      <cc:Work rdf:about="">
        <dc:format>image/svg+xml</dc:format>
        <dc:type rdf:resource="http://purl.org/dc/dcmitype/StillImage"/>
      </cc:Work>
    </rdf:RDF>
  </metadata>
  <circle cx="130.95011" cy="46.58577" r="46.54521"/>
  <path
     d="M124.50539,388.15534V549.98933C124.26193,579.39154,80.494976,579.39154,80.108304,549.98933V388.15534H22.821751L84.404788,171.89962H74.379644L38.57554,295.0651C29.524278,322.30474,-7.3109962,311.27714,1.3392857,282.17574L41.43986,148.98509C46.051436,133.68965,65.32836,106.68061,98.726432,106.02037H163.17384C195.6095,106.68061,214.96663,133.91881,220.46041,148.98509L260.56101,282.17574C268.69571,311.1339,232.15259,323.02082,223.32473,295.0651L187.52063,171.89962H176.06331L239.07855,388.15534H180.3598V549.98933C180.8181,579.39154,137.22302,579.2483,137.39487,549.98933V388.15534z"/>
  <path
     d="M462.49589,106.02037C426.70613,106.02037,403.77713,137.00793,403.77713,167.60313V310.81886C403.44773,338.80318,443.74313,338.80318,443.87777,310.81886V179.06038H453.90289V542.82853C453.28133,580.80938,506.95025,579.72094,506.89297,542.82853V330.86906H515.48597V542.82853C516.18773,579.72094,570.13733,580.80938,569.90817,542.82853V179.06038H579.93333V310.81886C579.46073,339.01802,619.54701,339.01802,620.03389,310.81886V167.60313C619.46109,137.00793,595.67281,106.56889,559.88305,106.02037z"/>
   <circle cx="511.90545" cy="46.58577" r="46.54521"/>
   <path
     d="M290.08144,389.83385C260.06688,389.83385,240.83782,401.38235,240.83782,412.7846V466.15844C240.56157,476.58767,274.35471,476.58767,274.46762,466.15844V417.0545H282.87504V552.62414C282.35378,566.7789,327.36243,566.37326,327.31439,552.62414V473.63078H334.52078V552.62414C335.1093,566.37326,380.35334,566.7789,380.16115,552.62414V417.0545H388.56861V466.15844C388.17227,476.66775,421.79003,476.66775,422.19835,466.15844V412.7846C421.71798,401.38235,401.76829,390.03828,371.75374,389.83385z"/>
  <ellipse cx="330.483" cy="341.701" rx="39.0345" ry="35.4095"/>
</svg>
